<svg 
 xmlns="http://www.w3.org/2000/svg"
 xmlns:xlink="http://www.w3.org/1999/xlink"
 width="11px" height="7px">
<path fill-rule="evenodd"  fill="rgb(254, 185, 96)"
 d="M0.699,3.421 L9.257,3.421 L7.398,1.535 C7.161,1.334 7.161,1.134 7.398,0.933 C7.598,0.696 7.799,0.696 7.999,0.933 L10.625,3.558 C10.661,3.576 10.697,3.622 10.734,3.695 C10.752,3.732 10.761,3.786 10.761,3.859 C10.761,3.932 10.752,3.987 10.734,4.23 C10.697,4.96 10.661,4.142 10.625,4.160 L7.999,6.785 C7.799,7.22 7.598,7.22 7.398,6.785 C7.161,6.584 7.161,6.384 7.398,6.183 L9.257,4.296 L0.699,4.296 C0.407,4.296 0.261,4.151 0.261,3.859 C0.261,3.567 0.407,3.421 0.699,3.421 L0.699,3.421 Z"/>
</svg>