<svg xmlns="http://www.w3.org/2000/svg" width="22" height="22" viewBox="0 0 22 22">
  <g id="dribbble" transform="translate(-14.207 -14.166)">
    <path id="Path_1" data-name="Path 1" d="M49.844,49.605q-.239-.544-.505-1.075a18.855,18.855,0,0,1-5.546.869c0,.016,0,.032,0,.048a5.42,5.42,0,0,0,1.29,3.514A9.509,9.509,0,0,1,49.844,49.605Zm-1.067-2.131a22.353,22.353,0,0,0-1.9-2.873l.172-.141a5.466,5.466,0,0,0-3.12,3.768A18.263,18.263,0,0,0,48.777,47.474Zm1.123-.4a9.218,9.218,0,0,0,2.848-1.785A5.425,5.425,0,0,0,48,44.143,24.441,24.441,0,0,1,49.9,47.071ZM51,49.322a11.153,11.153,0,0,1,3.679-.007,5.415,5.415,0,0,0-1.126-3.183,10.346,10.346,0,0,1-3.108,1.984C50.637,48.5,50.823,48.9,51,49.322Z" transform="translate(-24.078 -24.245)" fill="#bababa"/>
    <path id="Path_2" data-name="Path 2" d="M25.207,14.166a11,11,0,1,0,11,11A11,11,0,0,0,25.207,14.166Zm-.047,17.467a6.467,6.467,0,1,1,6.467-6.467A6.474,6.474,0,0,1,25.159,31.633Z" transform="translate(0 0)" fill="#bababa"/>
    <path id="Path_3" data-name="Path 3" d="M60.114,80.714a17.008,17.008,0,0,0-.969-3.794A8.179,8.179,0,0,0,54.791,80a5.436,5.436,0,0,0,5.408.7Zm.188-4.047a18.536,18.536,0,0,1,.909,3.477,5.456,5.456,0,0,0,2.234-3.431A10.192,10.192,0,0,0,60.3,76.667Z" transform="translate(-32.975 -50.601)" fill="#bababa"/>
  </g>
</svg>
