<svg xmlns="http://www.w3.org/2000/svg" width="22" height="22" viewBox="0 0 22 22">
  <g id="instagram" transform="translate(-49.61)">
    <circle id="Ellipse_2" data-name="Ellipse 2" cx="11" cy="11" r="11" transform="translate(49.61 0)" fill="#bababa"/>
    <path id="Path_5" data-name="Path 5" d="M784.889,726.379h-6.784a2.111,2.111,0,0,0-2.12,2.12v6.784a2.111,2.111,0,0,0,2.12,2.12h6.784a2.111,2.111,0,0,0,2.12-2.12V728.5A2.111,2.111,0,0,0,784.889,726.379Zm.612,1.272h.236v1.884h-1.884v-1.884Zm-5.559,3.109a1.909,1.909,0,0,1,3.109,0,1.917,1.917,0,0,1,.377,1.131,1.931,1.931,0,0,1-3.863,0A1.916,1.916,0,0,1,779.943,730.76Zm5.983,4.522a1.046,1.046,0,0,1-1.036,1.036h-6.784a1.046,1.046,0,0,1-1.036-1.036V730.76h1.649a3.015,3.015,0,1,0,5.559,0h1.649Z" transform="translate(-720.888 -720.891)" fill="#343434"/>
  </g>
</svg>
