<svg id="pinterest" xmlns="http://www.w3.org/2000/svg" width="22" height="22.009" viewBox="0 0 22 22.009">
  <ellipse id="Ellipse_3" data-name="Ellipse 3" cx="11" cy="11.004" rx="11" ry="11.004" transform="translate(0 0)" fill="#bababa"/>
  <path id="Path_6" data-name="Path 6" d="M159.322,133.9c-3.138,0-4.722,2.218-4.722,4.067a2.5,2.5,0,0,0,1.351,2.487.227.227,0,0,0,.332-.162c.031-.112.171-.4.2-.521a.315.315,0,0,0-.094-.364,1.661,1.661,0,0,1-.431-1.2,3,3,0,0,1,3.178-3.228,2.479,2.479,0,0,1,2.747,2.527c0,1.876-.844,3.4-2.1,3.4a.967.967,0,0,1-1.041-1.194,13.913,13.913,0,0,0,.584-2.312.826.826,0,0,0-.889-.916c-.7,0-1.275.66-1.275,1.625a1.77,1.77,0,0,0,.2.92s-.714,3.129-.844,3.658a7.21,7.21,0,0,0-.018,2.473.088.088,0,0,0,.157.036,6.962,6.962,0,0,0,1.194-2.132c.081-.287.467-1.787.467-1.787a1.848,1.848,0,0,0,1.612.709c2.123,0,3.564-1.809,3.564-4.359A3.92,3.92,0,0,0,159.322,133.9Z" transform="translate(-147.888 -128.13)" fill="#343434"/>
</svg>
