<?xml version="1.0" standalone="no"?>
<!DOCTYPE svg PUBLIC "-//W3C//DTD SVG 20010904//EN"
 "http://www.w3.org/TR/2001/REC-SVG-20010904/DTD/svg10.dtd">
<svg version="1.0" xmlns="http://www.w3.org/2000/svg"
 width="262.000000pt" height="262.000000pt" viewBox="0 0 262.000000 262.000000"
 preserveAspectRatio="xMidYMid meet">
<metadata>
Created by potrace 1.14, written by Peter Selinger 2001-2017
</metadata>
<g transform="translate(0.000000,262.000000) scale(0.100000,-0.100000)"
fill="#000000" stroke="none">
<path d="M1150 2610 c-102 -15 -115 -17 -176 -34 -352 -93 -655 -335 -822
-656 -111 -215 -153 -396 -147 -640 3 -160 19 -255 67 -395 124 -367 420 -669
783 -803 70 -26 112 -37 260 -68 17 -4 95 -8 175 -9 418 -9 787 167 1052 501
124 156 225 377 253 554 3 19 10 60 15 90 13 83 5 323 -15 414 -86 405 -342
740 -701 919 -110 55 -274 107 -384 122 -73 10 -300 13 -360 5z m350 -25 c84
-12 231 -55 316 -91 281 -121 509 -336 648 -611 34 -68 99 -243 91 -243 -2 0
0 -12 6 -26 10 -28 13 -43 28 -154 9 -68 8 -310 -1 -326 -4 -5 -9 -34 -13 -64
-18 -144 -123 -383 -230 -526 -471 -629 -1390 -698 -1944 -145 -172 171 -311
426 -351 643 -6 29 -13 64 -16 78 -9 41 -12 309 -4 348 5 21 10 53 13 72 14
100 53 221 112 341 101 207 262 385 471 520 137 90 351 167 509 184 33 4 61 9
63 10 6 5 255 -3 302 -10z"/>
<path d="M1026 1323 c1 -258 2 -471 3 -474 0 -3 27 -5 59 -5 l57 1 3 208 c2
155 5 207 15 207 6 1 95 0 197 0 l185 -1 -1 48 c-1 26 -2 51 -3 54 0 3 -88 5
-193 5 l-193 -1 -3 161 -2 161 207 1 c115 0 218 0 231 1 20 1 22 6 22 51 l0
50 -293 0 -293 0 2 -467z"/>
</g>
</svg>
