<svg 
 xmlns="http://www.w3.org/2000/svg"
 xmlns:xlink="http://www.w3.org/1999/xlink"
 width="19px" height="21px">
<path fill-rule="evenodd"  fill="rgb(254, 185, 96)"
 d="M1.15,17.206 C0.767,16.959 0.644,16.667 0.644,16.328 L0.644,1.328 C0.644,0.989 0.767,0.696 1.15,0.449 C1.262,0.201 1.555,0.78 1.894,0.78 L14.394,0.78 C14.732,0.78 15.25,0.201 15.273,0.449 C15.520,0.696 15.644,0.989 15.644,1.328 L15.644,2.578 L16.894,2.578 C17.232,2.578 17.525,2.702 17.773,2.949 C18.20,3.196 18.144,3.489 18.144,3.828 L18.144,18.828 C18.144,19.166 18.20,19.459 17.773,19.706 C17.525,19.954 17.232,20.78 16.894,20.78 L4.394,20.78 C4.55,20.78 3.762,19.954 3.515,19.706 C3.267,19.459 3.144,19.166 3.144,18.828 L3.144,17.577 L1.894,17.577 C1.555,17.577 1.262,17.454 1.15,17.206 ZM14.394,1.328 L1.894,1.328 L1.894,16.328 L14.394,16.328 L14.394,1.328 ZM15.644,3.828 L15.644,16.328 C15.644,16.667 15.520,16.959 15.273,17.206 C15.25,17.454 14.732,17.577 14.394,17.577 L4.394,17.577 L4.394,18.828 L16.894,18.828 L16.894,3.828 L15.644,3.828 ZM6.269,3.828 L12.519,3.828 C12.701,3.828 12.851,3.886 12.968,4.3 C13.85,4.121 13.144,4.271 13.144,4.453 C13.144,4.635 13.85,4.785 12.968,4.902 C12.851,5.19 12.701,5.77 12.519,5.77 L6.269,5.77 C6.87,5.77 5.937,5.19 5.820,4.902 C5.703,4.785 5.644,4.635 5.644,4.453 C5.644,4.271 5.703,4.121 5.820,4.3 C5.937,3.886 6.87,3.828 6.269,3.828 L6.269,3.828 ZM3.320,8.652 C3.203,8.535 3.144,8.385 3.144,8.203 C3.144,8.21 3.203,7.871 3.320,7.753 C3.437,7.636 3.587,7.578 3.769,7.578 L12.519,7.578 C12.701,7.578 12.851,7.636 12.968,7.753 C13.85,7.871 13.144,8.21 13.144,8.203 C13.144,8.385 13.85,8.535 12.968,8.652 C12.851,8.769 12.701,8.828 12.519,8.828 L3.769,8.828 C3.587,8.828 3.437,8.769 3.320,8.652 ZM3.320,11.152 C3.203,11.35 3.144,10.885 3.144,10.703 C3.144,10.521 3.203,10.371 3.320,10.253 C3.437,10.136 3.587,10.78 3.769,10.78 L12.519,10.78 C12.701,10.78 12.851,10.136 12.968,10.253 C13.85,10.371 13.144,10.521 13.144,10.703 C13.144,10.885 13.85,11.35 12.968,11.152 C12.851,11.269 12.701,11.327 12.519,11.327 L3.769,11.327 C3.587,11.327 3.437,11.269 3.320,11.152 ZM3.320,13.652 C3.203,13.535 3.144,13.385 3.144,13.203 C3.144,13.21 3.203,12.871 3.320,12.753 C3.437,12.636 3.587,12.578 3.769,12.578 L12.519,12.578 C12.701,12.578 12.851,12.636 12.968,12.753 C13.85,12.871 13.144,13.21 13.144,13.203 C13.144,13.385 13.85,13.535 12.968,13.652 C12.851,13.769 12.701,13.828 12.519,13.828 L3.769,13.828 C3.587,13.828 3.437,13.769 3.320,13.652 Z"/>
</svg>