<svg xmlns="http://www.w3.org/2000/svg" width="22" height="22" viewBox="0 0 22 22">
  <g id="twitter" transform="translate(-126.444 -2.281)">
    <circle id="Ellipse_4" data-name="Ellipse 4" cx="11" cy="11" r="11" transform="translate(126.444 2.281)" fill="#bababa"/>
    <path id="Path_7" data-name="Path 7" d="M245.741,144.611a5.655,5.655,0,0,1-1.606.433,2.765,2.765,0,0,0,1.229-1.52,5.643,5.643,0,0,1-1.776.667,2.814,2.814,0,0,0-2.04-.867,2.772,2.772,0,0,0-2.795,2.748,2.735,2.735,0,0,0,.072.626,7.983,7.983,0,0,1-5.762-2.871,2.7,2.7,0,0,0-.379,1.382,2.735,2.735,0,0,0,1.244,2.287,2.819,2.819,0,0,1-1.266-.344v.035a2.762,2.762,0,0,0,2.242,2.694,2.827,2.827,0,0,1-.737.1,2.883,2.883,0,0,1-.526-.048,2.793,2.793,0,0,0,2.611,1.908,5.708,5.708,0,0,1-4.139,1.138,8.01,8.01,0,0,0,4.285,1.235,7.829,7.829,0,0,0,7.953-7.819q0-.179-.009-.355a5.643,5.643,0,0,0,1.4-1.424Z" transform="translate(-101.578 -135.58)" fill="#343434"/>
  </g>
</svg>
