<svg 
 xmlns="http://www.w3.org/2000/svg"
 xmlns:xlink="http://www.w3.org/1999/xlink"
 width="21px" height="21px">
<path fill-rule="evenodd"  fill="rgb(254, 185, 96)"
 d="M6.839,8.789 L9.105,6.523 L15.511,12.968 L16.644,16.328 L13.285,15.195 L6.839,8.789 ZM3.871,5.820 C3.558,5.507 3.402,5.130 3.402,4.687 C3.402,4.245 3.558,3.867 3.871,3.554 C4.183,3.242 4.560,3.86 5.3,3.86 C5.446,3.86 5.824,3.242 6.136,3.554 L7.777,5.234 L5.550,7.460 L3.871,5.820 ZM20.23,0.449 C20.270,0.696 20.394,0.989 20.394,1.328 L20.394,18.828 C20.394,19.166 20.270,19.459 20.23,19.706 C19.775,19.954 19.482,20.78 19.144,20.78 L1.644,20.78 C1.305,20.78 1.12,19.954 0.765,19.706 C0.517,19.459 0.394,19.166 0.394,18.828 L0.394,1.328 C0.394,0.989 0.517,0.696 0.765,0.449 C1.12,0.201 1.305,0.78 1.644,0.78 L19.144,0.78 C19.482,0.78 19.775,0.201 20.23,0.449 ZM19.144,1.328 L1.644,1.328 L1.644,18.828 L19.144,18.828 L19.144,1.328 Z"/>
</svg>