<svg 
 xmlns="http://www.w3.org/2000/svg"
 xmlns:xlink="http://www.w3.org/1999/xlink"
 width="16px" height="21px">
<path fill-rule="evenodd"  fill="rgb(254, 185, 96)"
 d="M0.894,2.578 C0.894,1.875 1.135,1.282 1.617,0.800 C2.98,0.319 2.691,0.78 3.394,0.78 C4.97,0.78 4.689,0.319 5.171,0.800 C5.653,1.282 5.894,1.875 5.894,2.578 L5.894,3.828 L5.894,13.828 L3.394,20.78 L1.89,14.296 L0.894,13.828 L0.894,3.828 L0.894,3.828 L0.894,2.578 ZM2.144,3.828 L4.644,3.828 L4.644,2.578 C4.644,2.239 4.520,1.946 4.273,1.699 C4.25,1.451 3.732,1.328 3.394,1.328 C3.55,1.328 2.762,1.451 2.515,1.699 C2.267,1.946 2.144,2.239 2.144,2.578 L2.144,3.828 ZM4.19,15.117 L4.293,14.492 L4.293,14.414 L3.394,13.984 L2.496,14.414 L2.496,14.492 L2.769,15.117 L3.394,16.718 L4.19,15.117 ZM4.644,5.976 L4.644,5.234 L4.644,5.77 L3.394,5.77 L2.144,5.77 L2.144,5.234 L2.144,5.976 L2.144,13.203 L3.394,12.578 L4.644,13.203 L4.644,5.976 ZM14.644,5.77 L14.644,11.327 C14.982,11.327 15.275,11.452 15.523,11.699 C15.770,11.947 15.894,12.240 15.894,12.578 L15.894,16.328 C15.894,16.667 15.770,16.959 15.523,17.206 C15.275,17.454 14.982,17.577 14.644,17.577 C14.644,18.281 14.403,18.873 13.921,19.355 C13.439,19.837 12.847,20.78 12.144,20.78 C11.441,20.78 10.848,19.837 10.367,19.355 C9.885,18.873 9.644,18.281 9.644,17.577 L9.644,5.77 L10.152,3.789 L11.324,0.781 L11.363,0.781 C11.388,0.572 11.473,0.404 11.617,0.273 C11.760,0.143 11.935,0.78 12.144,0.78 C12.560,0.78 12.821,0.286 12.925,0.703 L14.136,3.789 L14.644,5.77 ZM13.394,11.327 L13.394,5.77 L13.316,5.77 L10.972,5.77 L10.894,5.77 L10.894,17.577 C10.894,17.916 11.17,18.209 11.265,18.456 C11.512,18.704 11.805,18.828 12.144,18.828 C12.482,18.828 12.775,18.704 13.23,18.456 C13.270,18.209 13.394,17.916 13.394,17.577 L13.394,16.328 L13.394,12.578 L13.394,11.327 ZM12.144,2.187 L11.480,3.828 L12.808,3.828 L12.144,2.187 Z"/>
</svg>